<?xml version="1.0" encoding="utf-8"?>
<!-- Generator: Adobe Illustrator 25.2.1, SVG Export Plug-In . SVG Version: 6.00 Build 0)  -->
<svg version="1.1" xmlns="http://www.w3.org/2000/svg" xmlns:xlink="http://www.w3.org/1999/xlink" x="0px" y="0px"
	 viewBox="0 0 640.63 535.75" style="enable-background:new 0 0 640.63 535.75;" xml:space="preserve">
<style type="text/css">
	.st0{fill:#F8F7F7;}
	.st1{fill:#EAEAEA;}
	.st2{fill:#D3D3D3;}
	.st3{fill:#85A629;}
	.st4{fill:#FFFFFF;}
</style>
<g id="Пример_с_охранным_полем">
	<g id="Layer_9">
	</g>
	<g id="_x35_.Лого_горизонт_с_охран._полем">
	</g>
	<g id="_x34_.Лого_основной_с_охран_полем">
	</g>
	<g id="_x33_.Лого-дескриптор_с_охран_полем">
	</g>
	<g id="_x32_.Лого_с_охран_полем">
	</g>
	<g id="_x31_.Символ_с_охран_полем">
	</g>
</g>
<g id="_x35_.Инверсия_Лого_горизонт">
</g>
<g id="_x34_.Инверсия_Лого_основной">
</g>
<g id="_x33_.Инверсия_Лого_с_дескриптером">
</g>
<g id="_x32_._Инверсия_Лого_Umecos">
</g>
<g id="_x31_.Инверсия_символ">
</g>
<g id="_x35_._Лого_горизонт_ор-ция">
</g>
<g id="_x34_._Лого_основной_вариант">
	<g id="Логотип_основной">
		<g id="символ_6_">
			<path class="st3" d="M243.69,114.46c5.4,0,9.78-4.38,9.78-9.78s-4.38-9.78-9.78-9.78s-9.78,4.38-9.78,9.78
				S238.29,114.46,243.69,114.46z"/>
			<path class="st3" d="M396.9,250.22c-5.4,0-9.78,4.38-9.78,9.78c0,5.4,4.38,9.78,9.78,9.78c5.4,0,9.78-4.38,9.78-9.78
				C406.68,254.6,402.3,250.22,396.9,250.22z"/>
			<path d="M435.05,119.72c-1.79-2.06-4.91-2.28-6.96-0.48c-2.88,2.52-6.37,4.38-9.97,5.75c-19.87-33.82-48.11-47.33-68.43-52.68
				c-26.5-6.99-55.47-4.08-79.48,7.99c-2.44,1.22-3.42,4.2-2.2,6.64c1.22,2.44,4.19,3.44,6.62,2.21
				c41.65-20.92,102.14-11.94,133.51,38.47c-3.82,0.63-7.23,0.79-9.58,0.72c-15.44-14.42-32.03-21.44-49.39-20.84
				c-19.44,0.67-35.75,11.15-44.52,20.73l-3.01,3.29l2.95,3.34c5.81,6.57,13.99,14.23,27.08,18.15c-0.9,1.52-1.81,3.18-2.52,4.77
				l-2.45,5.51l5.87,1.34c3.12,0.71,7.08,1.19,11.58,1.19c15.68,0,37.75-5.81,52.43-27.67c0.9,0.07,1.91,0.11,3.05,0.11
				c9.01,0,24.6-2.51,34.94-11.54C436.62,124.9,436.84,121.78,435.05,119.72z M349.51,117.38c9.56-0.33,18.96,2.18,28.09,7.47
				c-17.14-0.75-31.71,10.16-39.8,19.53c-10.41-2.32-17.34-7.38-22.63-12.69C323.01,124.62,335.27,117.87,349.51,117.38z
				 M341.51,155.86c0.47-0.72,0.91-1.36,1.26-1.84c6.76-9.49,23.75-24.17,42.84-17.61C372.36,152.97,353.77,156.54,341.51,155.86z"
				/>
			<path d="M365.96,274.81c-40.96,20.94-100.93,12.24-132.72-37.68c3.61-0.56,6.83-0.71,9.07-0.64
				c14.83,13.85,30.74,20.88,47.34,20.88c0.68,0,1.37-0.01,2.05-0.04c19.44-0.67,35.74-11.15,44.52-20.73l3.01-3.29l-2.95-3.34
				c-5.81-6.57-13.99-14.23-27.08-18.15c0.9-1.53,1.81-3.18,2.52-4.77l2.45-5.51l-5.87-1.34c-13.99-3.18-45.11-1.64-64,26.48
				c-8.07-0.64-26.36,1.26-38,11.43c-2.06,1.8-2.27,4.92-0.48,6.98c0.98,1.12,2.35,1.7,3.72,1.7c1.15,0,2.3-0.4,3.24-1.22
				c3-2.62,6.65-4.53,10.4-5.91c23.09,38.46,61.08,55.66,97.41,55.66c17.65,0,34.9-4.06,49.84-11.7c2.43-1.24,3.39-4.22,2.16-6.66
				C371.36,274.54,368.39,273.57,365.96,274.81z M291.36,247.44c-9.57,0.33-18.97-2.18-28.1-7.47c0.57,0.03,1.13,0.05,1.69,0.05
				c16.41,0,30.29-10.52,38.11-19.58c10.41,2.32,17.34,7.38,22.63,12.69C317.86,240.2,305.6,246.95,291.36,247.44z M299.36,208.96
				c-0.47,0.72-0.91,1.36-1.26,1.84c-6.76,9.49-23.75,24.16-42.84,17.61C268.51,211.85,287.09,208.26,299.36,208.96z"/>
			<path d="M425.52,148.6c-1.96-0.36-3.97,0.48-5.11,2.13c-1.43,2.05-35.69,50.03-98.27,26.95c-37.49-13.83-64.5-5.68-80.55,3.6
				c-10.42,6.02-17.92,13.32-22.72,18.97c-2.68-15.01-3.68-39.72,9.74-65.55c1.26-2.42,0.32-5.41-2.1-6.68
				c-2.42-1.26-5.4-0.32-6.66,2.1c-18.6,35.82-11.95,69.67-8.21,82.63c0.57,1.96,2.25,3.4,4.27,3.67c2.02,0.25,4.01-0.69,5.06-2.44
				c0.89-1.47,9.17-14.69,25.54-24.13c20.7-11.96,45-12.92,72.22-2.88c13.34,4.92,25.52,6.92,36.54,6.92
				c33.74,0,56.39-18.76,66.78-29.77c3.89,22.58,0.36,45.25-10.35,66.09c-1.25,2.43-0.3,5.42,2.12,6.67
				c0.72,0.37,1.5,0.55,2.26,0.55c1.79,0,3.51-0.98,4.39-2.68c13.32-25.89,16.47-54.38,9.12-82.38
				C429.08,150.43,427.48,148.95,425.52,148.6z"/>
		</g>
		<g>
			<path d="M133.34,345.91c0.09,19.51,0.32,56.49,0.42,76.45c0,0.34-0.19,0.56-0.53,0.56c-0.36,0.01-1,0-1.48-0.04
				c-3.12-0.26-6.33-1.57-8.68-3.96c-0.94-0.95-1.83-2.24-2.58-3.51l-0.46-0.75c-0.1-0.15-0.27-0.14-0.39-0.01
				c-4.85,5.1-12.91,9.53-22.48,9.74c-11.1,0.24-16.86-2.37-20.92-6.39c-3.68-3.65-7.14-8.47-7.43-22.97
				c-0.25-12.69,0-49.11,0-49.11c0-0.37,0.3-0.66,0.67-0.66l14.28,0.01c0.37,0,0.66,0.3,0.66,0.66v50.01
				c0,12.37,6.04,18.46,16.8,17.65c6.62-0.5,13.41-3.67,16.31-9.21c0.1-0.19,0.26-0.63,0.27-0.73c0.02-9.94,0-43.72,0-57.74
				c0-0.36,0.29-0.65,0.66-0.65l14.24,0C133.05,345.27,133.33,345.55,133.34,345.91z"/>
			<path d="M437.91,413.19c-5.11-7.46-7.66-17.26-7.66-29.4c0-12.24,2.55-22.07,7.66-29.48c5.11-7.41,14.17-11.12,27.18-11.12
				c12.9,0,21.94,3.73,27.1,11.2c5.16,7.47,7.74,17.27,7.74,29.4c0,27.07-11.61,40.6-34.84,40.6
				C452.08,424.39,443.02,420.66,437.91,413.19z M479.69,407.8c2.63-5.69,3.95-13.69,3.95-24.01c0-10.42-1.29-18.45-3.87-24.09
				c-2.58-5.64-7.47-8.46-14.68-8.46c-7.21,0-12.1,2.79-14.68,8.38c-2.58,5.59-3.87,13.64-3.87,24.17c0,10.42,1.29,18.45,3.87,24.09
				c2.58,5.64,7.47,8.46,14.68,8.46C472.19,416.34,477.05,413.49,479.69,407.8z"/>
			<path d="M254.31,349.84c3.97,4.29,6.16,10.79,6.04,18.21l0.08,53.83c0.01,0.37-0.32,0.67-0.69,0.67h-14.49
				c-0.37,0-0.67-0.3-0.67-0.67v-54.4c0-4.93-1.32-8.67-3.54-11.24c-2.22-2.57-5.55-3.92-9.53-3.84
				c-6.14,0.13-11.91,2.64-17.44,7.51c0.91,2.58,0.96,6.98,0.91,9.72l0.01,52.21c0,0.38-0.31,0.69-0.69,0.69l-14.45,0.01
				c-0.37,0-0.67-0.3-0.67-0.67V367.9c0-10.07-5.57-15.43-13.49-15.53c-6.03-0.08-11.64,2.61-16.82,7.11v62.4
				c0,0.37-0.3,0.67-0.67,0.67h-14.49c-0.36,0-0.66-0.3-0.66-0.66v-77.13c0-0.23,0.19-0.42,0.42-0.41c0.72,0.02,2.25,0.11,3.69,0.5
				c1.94,0.52,3.89,1.16,6.07,3.4c1.26,1.3,2.41,3.17,2.81,4.04c0.08,0.18,0.28,0.21,0.43,0.09c3.29-2.76,6.65-4.65,10.74-6.42
				c4.23-1.82,8.62-2.73,13.17-2.73c9.75,0,16.36,3.05,20.65,9.15c0.1,0.14,0.28,0.16,0.41,0.05c3.25-2.77,6.95-4.65,11.13-6.48
				c4.28-1.87,8.83-2.72,13.48-2.72C244.2,343.23,250.35,345.55,254.31,349.84z"/>
			<path d="M571.01,366.9c0.41,0,0.77-0.31,0.72-0.71c-0.44-3.93-2.86-22.48-28.68-22.95c-27.65-0.5-34.46,19.54-27.69,33.11
				c2.09,4.19,6,6.95,10.17,8.94c10.35,4.96,27.53,5.03,31.53,13.28c3.98,8.19-0.83,16.14-10.75,17.34
				c-7.41,0.89-13.5,0.03-19.19-8.83c-2.35-3.67-4.46-4.58-7.35-5.7c-2.31-0.89-5.16-1.17-7.38-1.17c-0.4,0-0.71,0.3-0.71,0.7
				c0,4.47,2.71,22.96,30.06,23.49c5.01,0.1,9.32-0.24,13.73-1.78c17.14-6.01,17.28-19.58,16.47-26.35
				c-0.99-8.28-8.05-15.11-22.08-18.09c-13.9-2.95-24.84-5.06-22.99-18.01c1.45-10.21,21.63-14.46,30.09-0.19
				c0.5,0.83,1.23,2.16,1.95,2.79c2.08,1.79,3.76,2.71,7.14,3.53C567.82,366.71,569.41,366.91,571.01,366.9z"/>
			<path d="M416.3,369.35c0.39,0.02,0.72-0.28,0.72-0.68c0.02-4.24-1.22-25.47-30.3-25.44c-31.66,0.03-33.21,33.99-31.21,51.33
				c2,17.34,14.64,31.54,34.91,29.68c19.9-1.82,26.82-13.58,27.07-27.06c0.01-0.41-0.36-0.74-0.77-0.69
				c-0.97,0.12-2.63,0.34-3.63,0.59c-4.61,1.15-8.8,3.53-11.28,9.17c-1.96,4.45-4.14,9.39-14.64,9.3
				c-16.61-0.16-16.76-24.71-16.5-30.88c0.04-0.92,0.06-1.84,0.05-2.77c-0.04-6.2,0-30.87,16.68-30.37
				c9.1,0.03,12.02,5.88,14.81,10.69C405.79,368.35,413.92,369.21,416.3,369.35z"/>
			<path d="M339.9,385.99c0.38,0,0.68-0.3,0.68-0.68c-0.02-7.54,1.8-42.07-31.37-42.07c-32.12,0-32.27,28.71-32.12,45.21
				c0.14,16.62,5.31,36.71,32.93,35.95c23.74-0.65,29.51-12.89,30.56-23.73c0.04-0.41-0.27-0.74-0.69-0.73
				c-1.4,0.05-4.46,0.24-6.47,0.96c-2.92,1.05-5.37,2.33-7.61,5.82c-2.89,4.51-6.03,9.66-14.7,9.62
				c-14.16-0.06-19.02-7.24-18.83-30.35c0,0,0,0,0,0L339.9,385.99z M309.22,351.18c16.72,0,17.16,19.15,17.26,26.44
				c0,0.01,0,0.01-0.01,0.01l-34.02,0c0,0-0.34,0-0.18,0C292.55,377.62,290.41,351.18,309.22,351.18z"/>
			<g id="лого1_8_">
				<g id="лого_ч_x2F_б_8_">
					<path d="M89.16,460.03c0.82-0.25,1.44-0.63,1.86-1.13c0.41-0.51,0.62-1.11,0.62-1.8c0-0.53-0.12-1.02-0.37-1.47
						c-0.25-0.44-0.63-0.82-1.13-1.14c-0.51-0.32-1.15-0.57-1.93-0.74c-0.78-0.18-1.69-0.26-2.75-0.26h-7.01v13.68h7.63
						c2.21,0,3.83-0.34,4.85-1.03c1.02-0.68,1.54-1.61,1.54-2.79c0-0.89-0.29-1.61-0.88-2.18
						C90.99,460.61,90.19,460.23,89.16,460.03z M81.43,454.95h4.02c0.99,0,1.73,0.19,2.24,0.56c0.5,0.37,0.75,0.9,0.75,1.59
						c0,1.56-1,2.35-2.99,2.35h-4.02V454.95z M88.43,465.11c-0.55,0.39-1.34,0.59-2.37,0.59h-4.64v-4.79h4.64
						c1.03,0,1.82,0.2,2.37,0.6c0.55,0.4,0.82,1.01,0.82,1.85C89.26,464.13,88.98,464.72,88.43,465.11z"/>
					<polygon points="105.23,467.16 117.81,467.16 117.81,465.7 108.22,465.7 108.22,460.91 115.75,460.91 115.75,459.44 
						108.22,459.44 108.22,454.95 117.81,454.95 117.81,453.48 105.23,453.48 					"/>
					<path d="M134.81,453.48l-5.87,13.68h2.97l1.36-3.32h7.83l1.36,3.32h2.97l-5.87-13.68H134.81z M133.99,462.38l3.09-7.23h0.21
						l3.09,7.23H133.99z"/>
					<path d="M168.41,461.59c0,0.81-0.11,1.5-0.32,2.08c-0.21,0.58-0.51,1.06-0.9,1.43c-0.38,0.37-0.85,0.65-1.39,0.82
						c-0.54,0.18-1.15,0.26-1.82,0.26c-0.67,0-1.28-0.09-1.82-0.26c-0.54-0.18-1.01-0.45-1.39-0.82c-0.38-0.37-0.68-0.85-0.9-1.43
						c-0.21-0.58-0.32-1.27-0.32-2.08v-8.11h-2.99v8.11c0,2.01,0.64,3.5,1.93,4.49c1.28,0.98,3.12,1.48,5.49,1.48
						c2.36,0,4.19-0.49,5.48-1.48c1.29-0.98,1.94-2.48,1.94-4.49v-8.11h-2.99V461.59z"/>
					<polygon points="183.36,454.95 188.92,454.95 188.92,467.16 191.91,467.16 191.91,454.95 197.48,454.95 197.48,453.48 
						183.36,453.48 					"/>
					<polygon points="216.24,460.42 216.13,460.42 211.29,453.48 207.99,453.48 214.69,463.06 214.69,467.16 217.68,467.16 
						217.68,463.06 224.38,453.48 221.08,453.48 					"/>
					<path d="M266.64,462.5c0.21-0.67,0.31-1.4,0.31-2.18h-2.06c0,0.52-0.07,1.03-0.21,1.52c-0.14,0.49-0.31,0.93-0.52,1.32
						l-3.5-2.74c0.47-0.22,0.91-0.47,1.33-0.73c0.42-0.27,0.79-0.57,1.11-0.9c0.32-0.33,0.58-0.69,0.77-1.08
						c0.19-0.39,0.29-0.82,0.29-1.29c0-0.47-0.1-0.91-0.31-1.31c-0.21-0.4-0.52-0.75-0.95-1.05c-0.43-0.3-0.96-0.53-1.61-0.7
						c-0.65-0.17-1.41-0.25-2.29-0.25c-0.88,0-1.64,0.08-2.29,0.25c-0.65,0.17-1.18,0.4-1.61,0.7c-0.43,0.3-0.74,0.65-0.95,1.05
						c-0.21,0.4-0.31,0.84-0.31,1.31c0,0.42,0.07,0.8,0.22,1.14c0.14,0.34,0.33,0.67,0.57,0.97c0.23,0.3,0.51,0.58,0.82,0.84
						c0.32,0.26,0.64,0.52,0.97,0.76c-0.49,0.2-0.96,0.41-1.39,0.65c-0.43,0.24-0.81,0.52-1.14,0.83c-0.33,0.31-0.59,0.67-0.78,1.07
						c-0.19,0.4-0.29,0.85-0.29,1.36c0,0.44,0.12,0.87,0.35,1.29c0.23,0.42,0.59,0.79,1.08,1.12c0.49,0.33,1.1,0.6,1.83,0.8
						c0.73,0.2,1.6,0.3,2.61,0.3c1.09,0,2.08-0.14,2.99-0.41c0.91-0.27,1.7-0.66,2.37-1.15l2.06,1.56l1.44-1.76l-1.86-1.47
						C266.12,463.78,266.43,463.17,266.64,462.5z M257.51,454.91c0.38-0.36,0.88-0.55,1.49-0.55c0.62,0,1.12,0.18,1.49,0.55
						c0.38,0.37,0.57,0.87,0.57,1.51c0,0.5-0.19,0.97-0.57,1.44s-0.88,0.86-1.49,1.2c-0.62-0.34-1.12-0.74-1.49-1.2
						c-0.38-0.46-0.57-0.94-0.57-1.44C256.95,455.78,257.14,455.27,257.51,454.91z M261.11,465.85c-0.61,0.23-1.27,0.34-2,0.34
						c-0.49,0-0.93-0.06-1.31-0.19c-0.38-0.12-0.7-0.29-0.97-0.49c-0.27-0.2-0.47-0.43-0.61-0.68c-0.14-0.25-0.21-0.52-0.21-0.79
						c0-0.55,0.21-1.05,0.62-1.5c0.41-0.46,0.93-0.83,1.55-1.13l4.53,3.54C262.25,465.31,261.72,465.62,261.11,465.85z"/>
					<path d="M301.68,453.48l-5.87,13.68h2.97l1.36-3.32h7.83l1.36,3.32h2.97l-5.87-13.68H301.68z M300.85,462.38l3.09-7.23h0.21
						l3.09,7.23H300.85z"/>
					<path d="M334.15,465.63c-0.86,0.31-1.76,0.46-2.69,0.46c-0.8,0-1.53-0.11-2.2-0.34c-0.67-0.23-1.24-0.58-1.73-1.05
						c-0.49-0.47-0.87-1.07-1.13-1.79c-0.27-0.72-0.4-1.59-0.4-2.59c0-1,0.13-1.87,0.4-2.59c0.27-0.72,0.64-1.32,1.1-1.79
						c0.47-0.47,1.02-0.82,1.67-1.05c0.65-0.23,1.34-0.34,2.08-0.34c0.93,0,1.83,0.15,2.69,0.46c0.86,0.31,1.68,0.8,2.46,1.5
						l1.03-1.17c-0.78-0.69-1.73-1.24-2.84-1.64c-1.11-0.4-2.3-0.61-3.55-0.61c-1.24,0-2.36,0.16-3.38,0.47
						c-1.02,0.31-1.89,0.77-2.61,1.39c-0.72,0.61-1.28,1.37-1.67,2.27c-0.39,0.9-0.59,1.94-0.59,3.11s0.2,2.21,0.6,3.11
						c0.4,0.9,0.97,1.65,1.7,2.27c0.73,0.61,1.62,1.07,2.66,1.39c1.04,0.31,2.2,0.47,3.49,0.47c1.25,0,2.43-0.2,3.55-0.61
						c1.11-0.4,2.06-0.95,2.84-1.64l-1.03-1.17C335.83,464.83,335.01,465.32,334.15,465.63z"/>
					<path d="M360.13,465.63c-0.86,0.31-1.76,0.46-2.69,0.46c-0.8,0-1.53-0.11-2.2-0.34c-0.67-0.23-1.24-0.58-1.73-1.05
						c-0.49-0.47-0.87-1.07-1.13-1.79c-0.27-0.72-0.4-1.59-0.4-2.59c0-1,0.13-1.87,0.4-2.59c0.27-0.72,0.64-1.32,1.1-1.79
						c0.47-0.47,1.02-0.82,1.67-1.05c0.65-0.23,1.34-0.34,2.08-0.34c0.93,0,1.83,0.15,2.69,0.46c0.86,0.31,1.68,0.8,2.46,1.5
						l1.03-1.17c-0.78-0.69-1.73-1.24-2.84-1.64c-1.11-0.4-2.3-0.61-3.55-0.61c-1.24,0-2.36,0.16-3.38,0.47
						c-1.02,0.31-1.89,0.77-2.61,1.39c-0.72,0.61-1.28,1.37-1.67,2.27c-0.39,0.9-0.59,1.94-0.59,3.11s0.2,2.21,0.6,3.11
						c0.4,0.9,0.97,1.65,1.7,2.27c0.73,0.61,1.62,1.07,2.66,1.39c1.04,0.31,2.2,0.47,3.49,0.47c1.25,0,2.43-0.2,3.55-0.61
						c1.11-0.4,2.06-0.95,2.84-1.64l-1.03-1.17C361.81,464.83,360.99,465.32,360.13,465.63z"/>
					<polygon points="375.78,467.16 388.36,467.16 388.36,465.7 378.77,465.7 378.77,460.91 386.29,460.91 386.29,459.44 
						378.77,459.44 378.77,454.95 388.36,454.95 388.36,453.48 375.78,453.48 					"/>
					<path d="M410.1,459.74l-3.9-1.17c-0.55-0.17-1.01-0.33-1.38-0.48c-0.37-0.15-0.67-0.31-0.9-0.49
						c-0.23-0.18-0.39-0.36-0.48-0.57c-0.1-0.2-0.14-0.44-0.14-0.71c0-0.5,0.26-0.91,0.77-1.25c0.52-0.34,1.29-0.51,2.32-0.51
						c1.25,0,2.36,0.17,3.34,0.5c0.98,0.33,1.85,0.82,2.64,1.46l1.03-1.17c-0.38-0.34-0.84-0.65-1.37-0.93
						c-0.53-0.28-1.1-0.52-1.71-0.71c-0.61-0.2-1.25-0.34-1.92-0.45c-0.67-0.1-1.34-0.16-2.01-0.16c-1.11,0-2.07,0.1-2.85,0.3
						c-0.79,0.2-1.44,0.48-1.95,0.82c-0.51,0.35-0.88,0.74-1.12,1.19c-0.24,0.45-0.36,0.92-0.36,1.4c0,0.94,0.33,1.71,0.99,2.32
						c0.66,0.61,1.64,1.1,2.93,1.5l3.92,1.17c1.09,0.33,1.86,0.66,2.31,1c0.45,0.34,0.68,0.76,0.68,1.25c0,0.64-0.29,1.14-0.87,1.51
						c-0.58,0.36-1.56,0.55-2.95,0.55c-1.25,0-2.4-0.17-3.44-0.5c-1.04-0.33-1.96-0.82-2.74-1.46l-1.03,1.17
						c0.38,0.34,0.84,0.65,1.37,0.93c0.53,0.28,1.11,0.52,1.73,0.71c0.62,0.2,1.28,0.34,1.98,0.45c0.69,0.1,1.4,0.16,2.13,0.16
						c1.29,0,2.38-0.1,3.27-0.31c0.89-0.21,1.61-0.49,2.16-0.85c0.56-0.36,0.96-0.78,1.21-1.27c0.25-0.49,0.37-1.01,0.37-1.57
						c0-0.94-0.36-1.71-1.07-2.33C412.34,460.61,411.35,460.11,410.1,459.74z"/>
					<path d="M435.87,459.74l-3.9-1.17c-0.55-0.17-1.01-0.33-1.38-0.48c-0.37-0.15-0.67-0.31-0.9-0.49
						c-0.23-0.18-0.39-0.36-0.48-0.57c-0.1-0.2-0.14-0.44-0.14-0.71c0-0.5,0.26-0.91,0.77-1.25c0.52-0.34,1.29-0.51,2.32-0.51
						c1.25,0,2.36,0.17,3.34,0.5c0.98,0.33,1.85,0.82,2.64,1.46l1.03-1.17c-0.38-0.34-0.84-0.65-1.37-0.93
						c-0.53-0.28-1.1-0.52-1.71-0.71c-0.61-0.2-1.25-0.34-1.92-0.45c-0.67-0.1-1.34-0.16-2.01-0.16c-1.11,0-2.06,0.1-2.85,0.3
						c-0.79,0.2-1.44,0.48-1.95,0.82c-0.51,0.35-0.88,0.74-1.12,1.19c-0.24,0.45-0.36,0.92-0.36,1.4c0,0.94,0.33,1.71,0.99,2.32
						c0.66,0.61,1.64,1.1,2.93,1.5l3.92,1.17c1.09,0.33,1.86,0.66,2.31,1c0.45,0.34,0.68,0.76,0.68,1.25c0,0.64-0.29,1.14-0.87,1.51
						c-0.58,0.36-1.56,0.55-2.95,0.55c-1.25,0-2.4-0.17-3.44-0.5c-1.04-0.33-1.96-0.82-2.74-1.46l-1.03,1.17
						c0.38,0.34,0.84,0.65,1.37,0.93c0.53,0.28,1.11,0.52,1.73,0.71c0.62,0.2,1.28,0.34,1.98,0.45s1.4,0.16,2.13,0.16
						c1.29,0,2.38-0.1,3.27-0.31c0.89-0.21,1.61-0.49,2.16-0.85c0.56-0.36,0.96-0.78,1.21-1.27c0.25-0.49,0.37-1.01,0.37-1.57
						c0-0.94-0.36-1.71-1.07-2.33C438.1,460.61,437.12,460.11,435.87,459.74z"/>
					<path d="M466.06,454.95c-0.72-0.61-1.59-1.08-2.6-1.39c-1.01-0.31-2.13-0.47-3.37-0.47c-1.24,0-2.36,0.16-3.38,0.47
						c-1.02,0.31-1.89,0.77-2.61,1.39c-0.72,0.61-1.28,1.37-1.67,2.27c-0.39,0.9-0.59,1.94-0.59,3.11s0.2,2.21,0.59,3.11
						c0.39,0.9,0.95,1.65,1.67,2.27c0.72,0.61,1.59,1.07,2.61,1.39c1.02,0.31,2.14,0.47,3.38,0.47c1.24,0,2.36-0.16,3.37-0.47
						c1.01-0.31,1.88-0.78,2.6-1.39c0.72-0.61,1.28-1.37,1.68-2.27c0.4-0.9,0.6-1.94,0.6-3.11s-0.2-2.21-0.6-3.11
						C467.34,456.32,466.78,455.56,466.06,454.95z M464.74,462.93c-0.27,0.74-0.63,1.35-1.08,1.83c-0.45,0.48-0.99,0.84-1.6,1.07
						c-0.61,0.23-1.27,0.35-1.97,0.35c-0.7,0-1.36-0.12-1.97-0.35c-0.61-0.23-1.14-0.59-1.6-1.07c-0.45-0.48-0.81-1.09-1.08-1.83
						c-0.27-0.74-0.4-1.61-0.4-2.61c0-1,0.13-1.87,0.4-2.61c0.27-0.74,0.63-1.35,1.08-1.83c0.45-0.48,0.99-0.84,1.6-1.08
						c0.61-0.23,1.27-0.35,1.97-0.35c0.7,0,1.36,0.12,1.97,0.35c0.61,0.24,1.14,0.59,1.6,1.08c0.45,0.48,0.81,1.09,1.08,1.83
						c0.27,0.74,0.4,1.61,0.4,2.61C465.14,461.33,465.01,462.2,464.74,462.93z"/>
					<path d="M494.31,460.91c0.55-0.72,0.82-1.6,0.82-2.64c0-0.76-0.15-1.43-0.45-2.02c-0.3-0.59-0.74-1.09-1.3-1.5
						c-0.56-0.41-1.25-0.72-2.07-0.94c-0.82-0.22-1.74-0.32-2.77-0.32h-7.42v13.68h2.99v-4.1h4.43h0.37l3.03,4.1h3.4l-3.4-4.61
						C492.97,462.17,493.76,461.63,494.31,460.91z M491.05,460.78c-0.59,0.54-1.43,0.81-2.51,0.81h-4.43v-6.64h4.43
						c1.09,0,1.92,0.27,2.51,0.81c0.59,0.54,0.89,1.38,0.89,2.51C491.94,459.4,491.64,460.24,491.05,460.78z"/>
					<rect x="507.91" y="453.48" width="2.99" height="13.68"/>
					<polygon points="524.09,467.16 536.67,467.16 536.67,465.7 527.08,465.7 527.08,460.91 534.61,460.91 534.61,459.44 
						527.08,459.44 527.08,454.95 536.67,454.95 536.67,453.48 524.09,453.48 					"/>
					<path d="M558.42,459.74l-3.9-1.17c-0.55-0.17-1.01-0.33-1.38-0.48c-0.37-0.15-0.67-0.31-0.9-0.49
						c-0.23-0.18-0.39-0.36-0.48-0.57c-0.1-0.2-0.14-0.44-0.14-0.71c0-0.5,0.26-0.91,0.77-1.25c0.52-0.34,1.29-0.51,2.32-0.51
						c1.25,0,2.36,0.17,3.34,0.5c0.98,0.33,1.85,0.82,2.64,1.46l1.03-1.17c-0.38-0.34-0.84-0.65-1.37-0.93
						c-0.53-0.28-1.1-0.52-1.71-0.71c-0.61-0.2-1.25-0.34-1.92-0.45c-0.67-0.1-1.34-0.16-2.01-0.16c-1.11,0-2.06,0.1-2.85,0.3
						c-0.79,0.2-1.44,0.48-1.95,0.82c-0.51,0.35-0.88,0.74-1.12,1.19c-0.24,0.45-0.36,0.92-0.36,1.4c0,0.94,0.33,1.71,0.99,2.32
						c0.66,0.61,1.64,1.1,2.93,1.5l3.92,1.17c1.09,0.33,1.86,0.66,2.31,1c0.45,0.34,0.68,0.76,0.68,1.25c0,0.64-0.29,1.14-0.87,1.51
						s-1.56,0.55-2.95,0.55c-1.25,0-2.4-0.17-3.44-0.5c-1.04-0.33-1.96-0.82-2.74-1.46l-1.03,1.17c0.38,0.34,0.84,0.65,1.37,0.93
						s1.11,0.52,1.73,0.71c0.62,0.2,1.28,0.34,1.98,0.45c0.69,0.1,1.4,0.16,2.13,0.16c1.29,0,2.38-0.1,3.27-0.31
						c0.89-0.21,1.61-0.49,2.16-0.85c0.56-0.36,0.96-0.78,1.21-1.27c0.25-0.49,0.37-1.01,0.37-1.57c0-0.94-0.36-1.71-1.07-2.33
						C560.65,460.61,559.67,460.11,558.42,459.74z"/>
				</g>
			</g>
		</g>
	</g>
</g>
<g id="_x33_.Лого_с_дескриптером">
</g>
<g id="_x32_.Лого_написание">
</g>
<g id="_x31_._Символ_Основной">
</g>
<g id="цветовая_палитра">
</g>
</svg>
