<svg width="79" height="41" viewBox="0 0 79 41" fill="none" xmlns="http://www.w3.org/2000/svg">
<path d="M58.9144 0.0529303C58.8353 0.0529303 58.7562 0.0371094 58.6771 0.0371094H20.4631C20.1624 0.0371094 19.8934 0.179524 19.7035 0.38523C19.6086 0.464348 19.5136 0.575112 19.4504 0.685877L0.256326 38.979C0.0980905 39.2796 0.113912 39.6594 0.303795 39.9442C0.477855 40.2449 0.810149 40.4189 1.14244 40.4189H20.4472H39.5938H58.6612H58.8353C58.8511 40.4189 58.8669 40.4031 58.8986 40.4031C69.9118 40.2765 78.8521 31.2729 78.8521 20.228C78.8521 9.18315 69.9276 0.179519 58.9144 0.0529303ZM2.75645 38.4252L20.3365 3.36006L37.9798 38.4252H2.75645ZM40.2109 38.4252L21.8872 2.03088H49.9899C43.2016 5.29054 38.4703 12.2055 38.4703 20.228C38.4703 28.2506 43.1857 35.1813 49.9899 38.4252H40.2109ZM58.6771 38.4252C48.6449 38.4252 40.4799 30.2602 40.4799 20.228C40.4799 10.1959 48.6449 2.03088 58.6771 2.03088C68.7092 2.03088 76.8742 10.1959 76.8742 20.228C76.8742 30.276 68.7092 38.4252 58.6771 38.4252Z" fill="white"/>
</svg>
