<svg width="32" height="28" viewBox="0 0 32 28" fill="none" xmlns="http://www.w3.org/2000/svg">
<path d="M29.8039 0H2.19608C1.61364 0 1.05506 0.227226 0.643217 0.63169C0.231372 1.03615 0 1.58473 0 2.15672V21.8753C0 22.4473 0.231372 22.9959 0.643217 23.4004C1.05506 23.8048 1.61364 24.0321 2.19608 24.0321H11.5294C11.5833 24.0343 11.6358 24.0496 11.6823 24.0764C11.7288 24.1033 11.7679 24.141 11.7961 24.1861L14.1176 26.9542C14.3129 27.2732 14.5888 27.5372 14.9186 27.7204C15.2485 27.9037 15.621 28 16 28C16.379 28 16.7515 27.9037 17.0814 27.7204C17.4112 27.5372 17.6871 27.2732 17.8824 26.9542L20.2039 24.1861C20.2321 24.141 20.2712 24.1033 20.3177 24.0764C20.3642 24.0496 20.4167 24.0343 20.4706 24.0321H29.8039C30.3864 24.0321 30.9449 23.8048 31.3568 23.4004C31.7686 22.9959 32 22.4473 32 21.8753V2.15672C32 1.58473 31.7686 1.03615 31.3568 0.63169C30.9449 0.227226 30.3864 0 29.8039 0ZM30.1176 21.8753C30.1176 21.9571 30.0846 22.0354 30.0258 22.0932C29.9669 22.151 29.8871 22.1835 29.8039 22.1835H20.4706C20.0914 22.1836 19.7188 22.2802 19.3889 22.4638C19.0591 22.6473 18.7832 22.9117 18.5882 23.231L16.2667 25.999C16.2419 26.0477 16.2039 26.0886 16.1568 26.1173C16.1097 26.1459 16.0554 26.161 16 26.161C15.9446 26.161 15.8903 26.1459 15.8432 26.1173C15.7961 26.0886 15.7581 26.0477 15.7333 25.999L13.4118 23.231C13.2168 22.9117 12.9409 22.6473 12.6111 22.4638C12.2812 22.2802 11.9086 22.1836 11.5294 22.1835H2.19608C2.11287 22.1835 2.03308 22.151 1.97424 22.0932C1.91541 22.0354 1.88235 21.9571 1.88235 21.8753V2.15672C1.88235 2.07501 1.91541 1.99664 1.97424 1.93886C2.03308 1.88108 2.11287 1.84862 2.19608 1.84862H29.8039C29.8871 1.84862 29.9669 1.88108 30.0258 1.93886C30.0846 1.99664 30.1176 2.07501 30.1176 2.15672V21.8753ZM10.0392 12.016C10.0392 12.3207 9.94722 12.6186 9.77485 12.8719C9.60249 13.1252 9.3575 13.3227 9.07088 13.4393C8.78425 13.5559 8.46885 13.5864 8.16456 13.527C7.86028 13.4675 7.58078 13.3208 7.3614 13.1053C7.14202 12.8899 6.99263 12.6154 6.9321 12.3166C6.87158 12.0177 6.90264 11.708 7.02137 11.4265C7.14009 11.145 7.34115 10.9044 7.59911 10.7351C7.85707 10.5659 8.16034 10.4755 8.47059 10.4755C8.88661 10.4755 9.2856 10.6378 9.57978 10.9267C9.87395 11.2156 10.0392 11.6075 10.0392 12.016ZM17.5686 12.016C17.5686 12.3207 17.4766 12.6186 17.3043 12.8719C17.1319 13.1252 16.8869 13.3227 16.6003 13.4393C16.3137 13.5559 15.9983 13.5864 15.694 13.527C15.3897 13.4675 15.1102 13.3208 14.8908 13.1053C14.6714 12.8899 14.522 12.6154 14.4615 12.3166C14.401 12.0177 14.4321 11.708 14.5508 11.4265C14.6695 11.145 14.8706 10.9044 15.1285 10.7351C15.3865 10.5659 15.6898 10.4755 16 10.4755C16.416 10.4755 16.815 10.6378 17.1092 10.9267C17.4034 11.2156 17.5686 11.6075 17.5686 12.016ZM25.098 12.016C25.098 12.3207 25.006 12.6186 24.8337 12.8719C24.6613 13.1252 24.4163 13.3227 24.1297 13.4393C23.8431 13.5559 23.5277 13.5864 23.2234 13.527C22.9191 13.4675 22.6396 13.3208 22.4202 13.1053C22.2008 12.8899 22.0515 12.6154 21.9909 12.3166C21.9304 12.0177 21.9615 11.708 22.0802 11.4265C22.1989 11.145 22.4 10.9044 22.6579 10.7351C22.9159 10.5659 23.2192 10.4755 23.5294 10.4755C23.9454 10.4755 24.3444 10.6378 24.6386 10.9267C24.9328 11.2156 25.098 11.6075 25.098 12.016Z" fill="#212121"/>
</svg>
