<svg width="23" height="22" viewBox="0 0 23 22" fill="none" xmlns="http://www.w3.org/2000/svg">
<path fill-rule="evenodd" clip-rule="evenodd" d="M21.3744 2.57169C21.9576 1.98338 21.9576 1.02954 21.3744 0.441232C20.7911 -0.147077 19.8455 -0.147077 19.2622 0.441232L11.0009 8.77416L2.73961 0.441232C2.15635 -0.147077 1.21071 -0.147077 0.627461 0.441232C0.0442086 1.02954 0.0442086 1.98338 0.627461 2.57169L8.88877 10.9046L0.43744 19.4292C-0.145814 20.0175 -0.145813 20.9714 0.43744 21.5597C1.02069 22.148 1.96633 22.148 2.54959 21.5597L11.0009 13.0351L19.4522 21.5597C20.0355 22.148 20.9811 22.148 21.5644 21.5597C22.1476 20.9714 22.1476 20.0175 21.5644 19.4292L13.1131 10.9046L21.3744 2.57169Z" fill="#212121"/>
</svg>
