<svg width="68" height="35" viewBox="0 0 68 35" fill="none" xmlns="http://www.w3.org/2000/svg">
<path d="M50.4452 0.680149C50.3782 0.680149 50.3112 0.666748 50.2442 0.666748H17.8747C17.62 0.666748 17.3921 0.787381 17.2313 0.961627C17.1509 1.02864 17.0705 1.12247 17.0168 1.21629L0.758381 33.6528C0.624345 33.9075 0.637747 34.2292 0.798589 34.4704C0.946028 34.7251 1.2275 34.8725 1.50897 34.8725H17.8613H34.0795H50.2308H50.3782C50.3916 34.8725 50.405 34.8591 50.4318 34.8591C59.7607 34.7519 67.3337 27.1253 67.3337 17.7696C67.3337 8.41398 59.7741 0.787377 50.4452 0.680149ZM2.87613 33.1837L17.7674 3.48148L32.7124 33.1837H2.87613ZM34.6023 33.1837L19.081 2.35559H42.8856C37.1355 5.11671 33.1279 10.9741 33.1279 17.7696C33.1279 24.5652 37.1221 30.436 42.8856 33.1837H34.6023ZM50.2442 33.1837C41.7463 33.1837 34.8301 26.2675 34.8301 17.7696C34.8301 9.2718 41.7463 2.35559 50.2442 2.35559C58.742 2.35559 65.6582 9.2718 65.6582 17.7696C65.6582 26.2809 58.742 33.1837 50.2442 33.1837Z" fill="white"/>
</svg>
