<?xml version="1.0" encoding="utf-8"?>
<!-- Generator: Adobe Illustrator 25.2.1, SVG Export Plug-In . SVG Version: 6.00 Build 0)  -->
<svg version="1.1" id="Livello_1" xmlns="http://www.w3.org/2000/svg" xmlns:xlink="http://www.w3.org/1999/xlink" x="0px" y="0px"
	 viewBox="0 0 247.5 116" style="enable-background:new 0 0 247.5 116;" xml:space="preserve">
<style type="text/css">
	.st0{fill:#E7E6E7;}
	.st1{fill:none;}
	.st2{fill:#DEC3B2;}
	.st3{fill:#FFFFFF;}
	.st4{fill:#1D1D1B;}
</style>
<g>
	<g>
		<path class="st4" d="M217.81,36.92h-0.12c0.06,0,0.11,0.01,0.16,0.01C217.84,36.92,217.83,36.92,217.81,36.92z"/>
		<g>
			<path class="st4" d="M217.86,36.92c-0.06,0-0.11-0.01-0.16-0.01h-26.46c-0.21,0-0.4,0.1-0.52,0.24
				c-0.07,0.06-0.13,0.13-0.18,0.21l-13.29,26.5c-0.11,0.21-0.09,0.47,0.03,0.67c0.12,0.2,0.35,0.33,0.59,0.33h13.37h13.25h13.2
				h0.12c0.01,0,0.03-0.01,0.04-0.01c7.63-0.09,13.81-6.32,13.81-13.97C231.67,43.24,225.49,37.01,217.86,36.92z M178.98,63.49
				l12.18-24.28l12.22,24.28H178.98z M204.91,63.49l-12.68-25.2h19.46c-4.71,2.25-7.97,7.05-7.97,12.6c0,5.56,3.27,10.35,7.97,12.6
				H204.91z M217.69,63.49c-6.95,0-12.6-5.65-12.6-12.6c0-6.95,5.65-12.6,12.6-12.6c6.95,0,12.6,5.65,12.6,12.6
				C230.29,57.84,224.64,63.49,217.69,63.49z"/>
		</g>
	</g>
	<g>
		<path class="st4" d="M74.82,105.65c-5.24,0-9.5-4.55-9.5-10.14c0-5.59,4.26-10.14,9.5-10.14c5.24,0,9.5,4.55,9.5,10.14
			C84.32,101.1,80.06,105.65,74.82,105.65z M74.82,89.33c-2.98,0-5.41,2.77-5.41,6.18c0,3.41,2.43,6.18,5.41,6.18
			c2.98,0,5.41-2.77,5.41-6.18C80.23,92.1,77.8,89.33,74.82,89.33z"/>
	</g>
	<path class="st4" d="M99.22,85.37c-5.71-0.02-7.29,2.85-7.29,2.85v-2.14h-4.51v18.89l4.51,0v-11.8c0-1.57,3.02-4.05,7.29-4.03
		V85.37z"/>
	<g>
		<path class="st4" d="M222.13,105.67c-5.24,0-9.5-4.55-9.5-10.14c0-5.59,4.26-10.14,9.5-10.14c5.24,0,9.5,4.55,9.5,10.14
			C231.63,101.12,227.37,105.67,222.13,105.67z M222.13,89.35c-2.98,0-5.41,2.77-5.41,6.18c0,3.41,2.43,6.18,5.41,6.18
			c2.98,0,5.41-2.77,5.41-6.18C227.53,92.12,225.11,89.35,222.13,89.35z"/>
	</g>
	<g>
		<rect x="205.13" y="86.14" class="st4" width="4.39" height="18.8"/>
	</g>
	<path class="st4" d="M210.19,80.81c0,1.57-1.31,2.83-2.93,2.83c-1.61,0-2.93-1.27-2.93-2.83c0-1.56,1.31-2.83,2.93-2.83
		C208.88,77.98,210.19,79.25,210.19,80.81z"/>
	<path class="st4" d="M50.93,94.49l-0.06-0.47c-0.18-1.28-0.59-2.5-1.21-3.62c-1.71-3.09-4.87-5.01-8.23-5.01
		c-5.27,0-9.55,4.55-9.55,10.14c0,3.57,1.81,6.92,4.72,8.74c1.46,0.91,3.13,1.39,4.83,1.39c1.69,0,3.36-0.48,4.83-1.39
		c1.65-1.03,2.96-2.54,3.78-4.36l0.3-0.65l-4.37,0.27l-0.19,0.01l-0.12,0.15c-1.07,1.36-2.62,2.13-4.24,2.13
		c-1.17,0-2.3-0.4-3.26-1.16c-0.25-0.2-0.47-0.4-0.67-0.61l-0.07-0.08l13.25-5.39L50.93,94.49z M41.43,89.24
		c1.81,0,3.52,0.98,4.58,2.62l0.05,0.07L35.81,96.1l0-0.1c-0.01-0.15-0.02-0.31-0.02-0.47C35.79,92.06,38.32,89.24,41.43,89.24z"/>
	<path class="st4" d="M58.4,83.48c0,0-0.03-1.28,0-1.82c0.07-1.2,1.2-1.47,1.63-1.47c1.34-0.01,2.5,1.86,2.5,1.86l2.6-2.52
		c0,0-1.85-4.03-5.14-4.03c-3.29,0-6.09,1.28-6.09,7.22c0,1.47,0,4.09,0,4.64l-0.01,17.6h4.5V90.05h5.53v-3.91H58.4V83.48z"/>
	<path class="st4" d="M127.5,88.35c-0.12-1.48-1.36-2.99-2.88-2.99l-0.02,0.02v-0.02c-3.75,0-7.43,3.15-7.43,3.15v-0.16l0,0
		c-0.12-1.48-1.37-2.99-2.88-2.99l-0.02,0.02l0-0.02c-3.81,0-7.43,3.15-7.43,3.15v-2.35h-4.51v18.82l4.51,0V92.62
		c0.08-0.08,2.69-3.03,4.71-3.03c0.85,0,0.96,1.08,0.97,2.16c-0.01,0.02,0,13.21,0,13.21h4.65V92.62c0,0,2.61-3.04,4.47-3.04
		c1.17,0,1.2,1.1,1.21,2.18c-0.01,0.02-0.01,0.03-0.01,0.03l0.01,13.18h4.65V93.49L127.5,88.35L127.5,88.35z"/>
	<path class="st4" d="M152.45,97.63c0,0-0.03,1.29,0,1.83c0.07,1.21,0.71,2.22,1.58,2.22c1.6,0,2.85-1.91,2.85-1.91l2.39,2.41
		c0,0-2.08,3.5-5.28,3.5c-3.19,0-5.91-1.29-5.91-7.28c0-1.48,0-2.42,0-2.98l0-17.84h4.37v8.56h5.36v4l-5.36,0.01V97.63z"/>
	<path class="st4" d="M140.37,91.24c0,0-0.76-2.21-2.5-2.21c-1.75,0-1.99,1.4-1.99,1.66c0,3.03,8.85,3.44,8.85,9.28
		c0,4.11-4.19,5.69-7.08,5.69c-2.27,0-5.31-1.24-7.01-5.06l3.31-1.96c0,0,1.05,3.46,4.19,3.46c1.54,0,2.5-1.1,2.5-2.18
		c0-3.45-9.05-3.48-9.05-9.26c0-3.76,3.73-5.09,5-5.22c3.48-0.36,5.31,0.49,7.29,4.09L140.37,91.24z"/>
	<path class="st4" d="M196.47,77.58v9.38c-1.51-1.08-3.36-1.62-5.31-1.62c-5.24,0-9.47,4.44-9.47,10.04
		c0,5.59,4.19,10.26,9.43,10.26c1.95,0,3.85-0.76,5.36-1.84v1.16h4.38V77.58H196.47z M196.15,97.83c0,0.02-0.01,0.03-0.02,0.04
		c-0.84,2.17-2.81,3.81-5.02,3.81c-2.99,0-5.34-2.89-5.34-6.3c0-3.41,2.43-6.06,5.41-6.06c2.03,0,3.8,1.22,4.73,3.08
		c0,0,0-0.01,0-0.01C196.59,93.53,196.96,95.97,196.15,97.83z"/>
	<path class="st4" d="M174.11,86.14v12.16c0,1.28-1.05,2.21-2.25,2.78v0c-1.98,1.1-3.79,0.52-3.79,0.52
		c-0.79-0.33-1.02-0.93-1.07-1.37l-0.15-1.15c0-0.01,0,0.17,0,0.17v-0.17v-3.35v-2.32v-7.27h-4.47l0.01,2.78
		c-0.01,2.09-0.02,5.07,0.02,7.68l0,0.06c0,0-0.12,3.22,0.27,5.18c0.01,0.05,0.02,0.11,0.03,0.16c0,0.01,0,0.01,0,0.02
		c0,0.01,0.01,0.02,0.01,0.03c0.03,0.1,0.06,0.21,0.09,0.31c0,0.01,0.01,0.03,0.01,0.04c0.41,1.24,1.41,2.59,3.45,3.07
		c0.44,0.12,0.91,0.19,1.4,0.19c0.04,0,0.08,0,0.12,0c0.04,0,0.07,0,0.1,0c2.26,0.01,3.91-0.79,4.98-1.51
		c0.02-0.01,0.03-0.02,0.04-0.03c0.18-0.13,0.35-0.25,0.5-0.37l0,0c0.46-0.37,0.69-0.66,0.69-0.66v1.83h4.47V86.14H174.11z"/>
	<path class="st4" d="M26.71,88.98c-1.29-0.97-2.17-1.27-2.17-1.27s1.66-0.96,2.09-4.13c0.02-0.3,0.04-0.88,0.04-1.19
		c0-5.85-4.11-6.84-10.17-6.84L12,75.57v29.38l4.52-0.01c7.65,0,12.69-0.61,12.69-9.48C29.21,92.69,28.4,90.36,26.71,88.98z
		 M16.52,78.65c2.8,0,3.86,0.16,4.51,0.53c0.07,0.04,0.14,0.09,0.21,0.13c0.19,0.14,0.36,0.3,0.54,0.48
		c0.6,0.65,0.94,1.59,0.94,2.94c0,0.93-0.17,1.64-0.48,2.19c-0.85,1.19-2,1.63-3.66,1.63h-2.07V78.65z M23.04,100.58
		c-0.4,0.32-1.73,1.1-3.32,1.1h-3.2V90.68h3.62c0.89,0,1.7,0.3,2.32,0.63c1.29,0.84,2.19,2.31,2.19,4.89
		C24.64,98.35,24,99.71,23.04,100.58z"/>
</g>
</svg>
