<svg width="72" height="72" viewBox="0 0 72 72" fill="none" xmlns="http://www.w3.org/2000/svg">
<path d="M52.3903 18.6802H52.2441C52.3106 18.6802 52.377 18.6934 52.4434 18.6934C52.4169 18.6802 52.4036 18.6802 52.3903 18.6802Z" fill="#212121"/>
<path d="M52.4452 18.6802C52.3782 18.6802 52.3112 18.6668 52.2442 18.6668H19.8747C19.62 18.6668 19.3921 18.7874 19.2313 18.9617C19.1509 19.0287 19.0705 19.1225 19.0168 19.2163L2.75838 51.6528C2.62435 51.9075 2.63775 52.2292 2.79859 52.4705C2.94603 52.7251 3.2275 52.8726 3.50897 52.8726H19.8613H36.0795H52.2308H52.3782C52.3916 52.8726 52.405 52.8592 52.4318 52.8592C61.7607 52.7519 69.3337 45.1253 69.3337 35.7697C69.3337 26.414 61.7741 18.7874 52.4452 18.6802ZM4.87613 51.1837L19.7674 21.4815L34.7124 51.1837H4.87613ZM36.6023 51.1837L21.081 20.3556H44.8856C39.1355 23.1168 35.1279 28.9741 35.1279 35.7697C35.1279 42.5653 39.1221 48.436 44.8856 51.1837H36.6023ZM52.2442 51.1837C43.7463 51.1837 36.8301 44.2675 36.8301 35.7697C36.8301 27.2718 43.7463 20.3556 52.2442 20.3556C60.742 20.3556 67.6582 27.2718 67.6582 35.7697C67.6582 44.2809 60.742 51.1837 52.2442 51.1837Z" fill="#212121"/>
</svg>
