<svg width="411" height="69" viewBox="0 0 411 69" fill="none" xmlns="http://www.w3.org/2000/svg">
<path d="M120.643 61.6828C111.181 61.6828 103.489 53.4702 103.489 43.3804C103.489 33.2907 111.181 25.0781 120.643 25.0781C130.105 25.0781 137.797 33.2907 137.797 43.3804C137.797 53.4702 130.105 61.6828 120.643 61.6828ZM120.643 32.2258C115.262 32.2258 110.874 37.2255 110.874 43.3804C110.874 49.5354 115.262 54.5351 120.643 54.5351C126.024 54.5351 130.412 49.5354 130.412 43.3804C130.412 37.2255 126.024 32.2258 120.643 32.2258Z" fill="#212121"/>
<path d="M164.701 25.0781C154.391 25.042 151.538 30.2222 151.538 30.2222V26.3596H143.395V60.4553H151.538V39.1568C151.538 36.323 156.991 31.8467 164.701 31.8828V25.0781Z" fill="#212121"/>
<path d="M386.636 61.7189C377.175 61.7189 369.482 53.5063 369.482 43.4166C369.482 33.3268 377.175 25.1143 386.636 25.1143C396.098 25.1143 403.79 33.3268 403.79 43.4166C403.79 53.5063 396.098 61.7189 386.636 61.7189ZM386.636 32.2619C381.255 32.2619 376.868 37.2617 376.868 43.4166C376.868 49.5715 381.255 54.5712 386.636 54.5712C392.017 54.5712 396.405 49.5715 396.405 43.4166C396.387 37.2617 392.017 32.2619 386.636 32.2619Z" fill="#212121"/>
<path d="M363.866 26.468H355.939V60.4013H363.866V26.468Z" fill="#212121"/>
<path d="M365.077 16.8475C365.077 19.6813 362.712 21.9556 359.787 21.9556C356.88 21.9556 354.496 19.6633 354.496 16.8475C354.496 14.0318 356.862 11.7395 359.787 11.7395C362.712 11.7395 365.077 14.0318 365.077 16.8475Z" fill="#212121"/>
<path d="M77.5064 41.5394L77.398 40.6911C77.073 38.3807 76.3327 36.1787 75.2132 34.1571C72.1255 28.5798 66.4196 25.1143 60.3525 25.1143C50.8367 25.1143 43.1084 33.3268 43.1084 43.4166C43.1084 49.8603 46.3767 55.9069 51.6312 59.1919C54.2674 60.8345 57.2829 61.7009 60.3525 61.7009C63.4041 61.7009 66.4196 60.8345 69.0739 59.1919C72.0533 57.3328 74.4187 54.6073 75.8993 51.3223L76.441 50.1491L68.5503 50.6364L68.2072 50.6545L67.9905 50.9252C66.0584 53.38 63.2597 54.7698 60.3345 54.7698C58.2218 54.7698 56.1814 54.0478 54.448 52.676C53.9966 52.315 53.5993 51.9541 53.2382 51.575L53.1118 51.4306L77.0369 41.7019L77.5064 41.5394ZM60.3525 32.0634C63.6208 32.0634 66.7085 33.8322 68.6225 36.7924L68.7128 36.9187L50.2047 44.4454V44.2649C50.1866 43.9942 50.1686 43.7054 50.1686 43.4166C50.1686 37.1534 54.7369 32.0634 60.3525 32.0634Z" fill="#212121"/>
<path d="M90.9942 21.6668C90.9942 21.6668 90.94 19.3564 90.9942 18.3818C91.1206 16.2158 93.161 15.7285 93.9374 15.7285C96.357 15.7104 98.4516 19.0857 98.4516 19.0857L103.146 14.5372C103.146 14.5372 99.8058 7.26318 93.8652 7.26318C87.9245 7.26318 82.8686 9.57354 82.8686 20.295C82.8686 22.9483 82.8686 27.6773 82.8686 28.67L82.8506 60.4374H90.9761V33.5254H100.961V26.468H90.9942V21.6668Z" fill="#212121"/>
<path d="M215.766 30.4569C215.549 27.7855 213.31 25.0601 210.566 25.0601L210.53 25.0962V25.0601C203.758 25.0601 197.113 30.7457 197.113 30.7457V30.4569C196.897 27.7855 194.64 25.0601 191.913 25.0601L191.877 25.0962V25.0601C184.997 25.0601 178.461 30.7457 178.461 30.7457V26.504H170.317V60.4734H178.461V38.1641C178.605 38.0197 183.318 32.695 186.966 32.695C188.5 32.695 188.699 34.6444 188.717 36.5938C188.699 36.6299 188.717 60.4373 188.717 60.4373H197.113V38.1641C197.113 38.1641 201.826 32.677 205.185 32.677C207.297 32.677 207.352 34.6625 207.37 36.6118C207.352 36.6479 207.352 36.666 207.352 36.666L207.37 60.4554H215.766V39.7344V30.4569Z" fill="#212121"/>
<path d="M260.817 47.2068C260.817 47.2068 260.762 49.5352 260.817 50.5099C260.943 52.6939 262.099 54.5169 263.67 54.5169C266.559 54.5169 268.816 51.0694 268.816 51.0694L273.131 55.4194C273.131 55.4194 269.375 61.7368 263.597 61.7368C257.837 61.7368 252.926 59.4084 252.926 48.5966C252.926 45.9253 252.926 44.2286 252.926 43.2179V11.0173H260.817V26.4678H270.495V33.6877L260.817 33.7057V47.2068Z" fill="#212121"/>
<path d="M239.005 35.6731C239.005 35.6731 237.632 31.6841 234.491 31.6841C231.331 31.6841 230.897 34.2111 230.897 34.6804C230.897 40.1494 246.877 40.8894 246.877 51.4304C246.877 58.8488 239.312 61.7007 234.093 61.7007C229.994 61.7007 224.505 59.4625 221.436 52.5675L227.412 49.0298C227.412 49.0298 229.308 55.275 234.978 55.275C237.759 55.275 239.492 53.2895 239.492 51.3402C239.492 45.1131 223.151 45.0589 223.151 34.6262C223.151 27.8396 229.886 25.439 232.179 25.2043C238.463 24.5545 241.767 26.0887 245.343 32.5866L239.005 35.6731Z" fill="#212121"/>
<path d="M340.303 11.0173V27.9479C337.576 25.9985 334.236 25.0238 330.715 25.0238C321.253 25.0238 313.615 33.0379 313.615 43.1457C313.615 53.2354 321.181 61.6646 330.643 61.6646C334.164 61.6646 337.595 60.2928 340.321 58.3434V60.4372H348.23V11.0173H340.303ZM339.725 47.5678C339.725 47.6039 339.707 47.622 339.689 47.64C338.172 51.5568 334.615 54.5169 330.625 54.5169C325.226 54.5169 320.982 49.3006 320.982 43.1457C320.982 36.9907 325.37 32.2076 330.751 32.2076C334.417 32.2076 337.613 34.4096 339.292 37.7669V37.7488C340.52 39.8065 341.188 44.2106 339.725 47.5678Z" fill="#212121"/>
<path d="M299.928 26.468V48.4164C299.928 50.7267 298.032 52.4053 295.865 53.4342C292.29 55.4196 289.021 54.3727 289.021 54.3727C287.595 53.7771 287.18 52.6941 287.089 51.8999L286.818 49.8242C286.818 49.8062 286.818 50.1311 286.818 50.1311V49.8242V43.7776V39.5901V26.468H278.747L278.765 31.4858C278.747 35.2582 278.729 40.637 278.801 45.3479V45.4562C278.801 45.4562 278.585 51.2682 279.289 54.8059C279.307 54.8962 279.325 55.0045 279.343 55.0947C279.343 55.1128 279.343 55.1128 279.343 55.1308C279.343 55.1489 279.361 55.1669 279.361 55.185C279.415 55.3655 279.469 55.564 279.523 55.7445C279.523 55.7626 279.542 55.7987 279.542 55.8167C280.282 58.0549 282.088 60.4916 285.771 61.3579C286.566 61.5745 287.414 61.7009 288.299 61.7009C288.371 61.7009 288.443 61.7009 288.516 61.7009C288.588 61.7009 288.642 61.7009 288.696 61.7009C292.777 61.7189 295.756 60.275 297.689 58.9754C297.725 58.9573 297.743 58.9393 297.761 58.9212C298.086 58.6866 298.393 58.47 298.664 58.2534C299.494 57.5856 299.91 57.0621 299.91 57.0621V60.3652H307.981V26.468H299.928Z" fill="#212121"/>
<path d="M33.7723 31.5944C31.443 29.8436 29.854 29.3021 29.854 29.3021C29.854 29.3021 32.8514 27.5693 33.6279 21.8476C33.664 21.3061 33.7001 20.2592 33.7001 19.6997C33.7001 9.14067 26.2788 7.35376 15.3364 7.35376L7.21094 7.38985V60.4196L15.3726 60.4016C29.1859 60.4016 38.2865 59.3006 38.2865 43.2906C38.2865 38.2908 36.8239 34.0853 33.7723 31.5944ZM15.3726 12.9491C20.4284 12.9491 22.3424 13.2379 23.5161 13.9058C23.6425 13.978 23.7689 14.0682 23.8953 14.1404C24.2384 14.3931 24.5454 14.6819 24.8704 15.0068C25.9538 16.18 26.5677 17.8767 26.5677 20.3134C26.5677 21.992 26.2607 23.2735 25.701 24.2662C24.1662 26.4142 22.0896 27.2083 19.0922 27.2083H15.3545V12.9491H15.3726ZM27.1455 52.532C26.4233 53.1096 24.0217 54.5174 21.1507 54.5174H15.3726V34.6628H21.9091C23.5161 34.6628 24.9787 35.2043 26.0982 35.8C28.4275 37.3161 30.0526 39.9694 30.0526 44.6262C30.0346 48.5069 28.879 50.9617 27.1455 52.532Z" fill="#212121"/>
</svg>
