<svg width="230" height="39" viewBox="0 0 230 39" fill="none" xmlns="http://www.w3.org/2000/svg">
<g opacity="0.8">
<g clip-path="url(#clip0)">
<g filter="url(#filter0_d)">
<path d="M67.5128 34.8644C62.2179 34.8644 57.9133 30.2225 57.9133 24.5196C57.9133 18.8167 62.2179 14.1748 67.5128 14.1748C72.8077 14.1748 77.1123 18.8167 77.1123 24.5196C77.1123 30.2225 72.8077 34.8644 67.5128 34.8644ZM67.5128 18.2148C64.5016 18.2148 62.0462 21.0407 62.0462 24.5196C62.0462 27.9985 64.5016 30.8244 67.5128 30.8244C70.524 30.8244 72.9795 27.9985 72.9795 24.5196C72.9795 21.0407 70.524 18.2148 67.5128 18.2148Z" fill="#212121"/>
</g>
<g filter="url(#filter1_d)">
<path d="M92.1682 14.1749C86.3984 14.1545 84.8019 17.0825 84.8019 17.0825V14.8992H80.2446V34.1708H84.8019V22.1324C84.8019 20.5307 87.8535 18.0006 92.1682 18.021V14.1749Z" fill="#212121"/>
</g>
<g filter="url(#filter2_d)">
<path d="M216.365 34.8849C211.07 34.8849 206.766 30.243 206.766 24.5401C206.766 18.8372 211.07 14.1953 216.365 14.1953C221.66 14.1953 225.965 18.8372 225.965 24.5401C225.965 30.243 221.66 34.8849 216.365 34.8849ZM216.365 18.2353C213.354 18.2353 210.898 21.0612 210.898 24.5401C210.898 28.019 213.354 30.8449 216.365 30.8449C219.376 30.8449 221.832 28.019 221.832 24.5401C221.822 21.0612 219.376 18.2353 216.365 18.2353Z" fill="#212121"/>
</g>
<g filter="url(#filter3_d)">
<path d="M203.623 14.9604H199.187V34.1401H203.623V14.9604Z" fill="#212121"/>
</g>
<g filter="url(#filter4_d)">
<path d="M204.301 9.52289C204.301 11.1246 202.977 12.41 201.34 12.41C199.713 12.41 198.379 11.1144 198.379 9.52289C198.379 7.93139 199.703 6.63574 201.34 6.63574C202.977 6.63574 204.301 7.93139 204.301 9.52289Z" fill="#212121"/>
</g>
<g filter="url(#filter5_d)">
<path d="M43.3728 23.4791L43.3121 22.9996C43.1303 21.6938 42.716 20.4491 42.0895 19.3065C40.3616 16.1541 37.1685 14.1953 33.7733 14.1953C28.4481 14.1953 24.1233 18.8372 24.1233 24.5401C24.1233 28.1822 25.9522 31.5999 28.8927 33.4566C30.368 34.385 32.0555 34.8747 33.7733 34.8747C35.481 34.8747 37.1685 34.385 38.6539 33.4566C40.3211 32.4058 41.6449 30.8653 42.4735 29.0086L42.7766 28.3454L38.3608 28.6209L38.1688 28.6311L38.0476 28.7841C36.9664 30.1716 35.4002 30.9571 33.7632 30.9571C32.5809 30.9571 31.4391 30.5491 30.4691 29.7737C30.2164 29.5697 29.9941 29.3656 29.792 29.1514L29.7213 29.0698L43.11 23.5709L43.3728 23.4791ZM33.7733 18.1231C35.6022 18.1231 37.3302 19.1229 38.4012 20.796L38.4518 20.8674L28.0944 25.1216V25.0196C28.0843 24.8666 28.0742 24.7033 28.0742 24.5401C28.0742 21 30.6307 18.1231 33.7733 18.1231Z" fill="#212121"/>
</g>
<g filter="url(#filter6_d)">
<path d="M50.921 12.2466C50.921 12.2466 50.8907 10.9408 50.921 10.3899C50.9917 9.16565 52.1336 8.89019 52.5681 8.89019C53.9221 8.87999 55.0942 10.7878 55.0942 10.7878L57.7215 8.21686C57.7215 8.21686 55.8521 4.10547 52.5276 4.10547C49.2032 4.10547 46.3739 5.41132 46.3739 11.4713C46.3739 12.971 46.3739 15.6439 46.3739 16.205L46.3638 34.1605H50.9109V18.9493H56.4988V14.9604H50.921V12.2466Z" fill="#212121"/>
</g>
<g filter="url(#filter7_d)">
<path d="M120.745 17.2149C120.623 15.705 119.37 14.1646 117.834 14.1646L117.814 14.185V14.1646C114.025 14.1646 110.306 17.3782 110.306 17.3782V17.2149C110.185 15.705 108.922 14.1646 107.396 14.1646L107.376 14.185V14.1646C103.526 14.1646 99.8683 17.3782 99.8683 17.3782V14.9807H95.311V34.1808H99.8683V21.5712C99.9491 21.4896 102.586 18.48 104.628 18.48C105.486 18.48 105.598 19.5818 105.608 20.6836C105.598 20.704 105.608 34.1604 105.608 34.1604H110.306V21.5712C110.306 21.5712 112.944 18.4698 114.823 18.4698C116.005 18.4698 116.036 19.592 116.046 20.6938C116.036 20.7142 116.036 20.7244 116.036 20.7244L116.046 34.1706H120.745V22.4587V17.2149Z" fill="#212121"/>
</g>
<g filter="url(#filter8_d)">
<path d="M145.956 26.6825C145.956 26.6825 145.926 27.9985 145.956 28.5494C146.027 29.7839 146.673 30.8143 147.553 30.8143C149.169 30.8143 150.432 28.8657 150.432 28.8657L152.847 31.3244C152.847 31.3244 150.746 34.8951 147.512 34.8951C144.289 34.8951 141.54 33.579 141.54 27.468C141.54 25.9581 141.54 24.9991 141.54 24.4278V6.22754H145.956V14.9604H151.372V19.0412L145.956 19.0514V26.6825Z" fill="#212121"/>
</g>
<g filter="url(#filter9_d)">
<path d="M133.749 20.1635C133.749 20.1635 132.981 17.9088 131.223 17.9088C129.455 17.9088 129.212 19.3371 129.212 19.6024C129.212 22.6936 138.155 23.1118 138.155 29.0698C138.155 33.2628 133.921 34.8747 131.001 34.8747C128.707 34.8747 125.635 33.6097 123.917 29.7125L127.262 27.7129C127.262 27.7129 128.323 31.2428 131.496 31.2428C133.052 31.2428 134.022 30.1206 134.022 29.0188C134.022 25.4991 124.877 25.4685 124.877 19.5718C124.877 15.7358 128.646 14.379 129.93 14.2463C133.446 13.8791 135.295 14.7462 137.296 18.4189L133.749 20.1635Z" fill="#212121"/>
</g>
<g filter="url(#filter10_d)">
<path d="M190.436 6.22754V15.797C188.911 14.6952 187.041 14.1443 185.071 14.1443C179.776 14.1443 175.502 18.6739 175.502 24.387C175.502 30.0899 179.736 34.8542 185.03 34.8542C187.001 34.8542 188.921 34.0789 190.447 32.9771V34.1605H194.872V6.22754H190.436ZM190.113 26.8865C190.113 26.9069 190.103 26.9171 190.093 26.9273C189.244 29.1411 187.253 30.8143 185.02 30.8143C181.999 30.8143 179.624 27.8659 179.624 24.387C179.624 20.9082 182.08 18.2046 185.091 18.2046C187.142 18.2046 188.931 19.4493 189.871 21.3468V21.3366C190.558 22.4997 190.932 24.9889 190.113 26.8865Z" fill="#212121"/>
</g>
<g filter="url(#filter11_d)">
<path d="M167.843 14.9604V27.366C167.843 28.6719 166.782 29.6207 165.569 30.2022C163.568 31.3244 161.739 30.7327 161.739 30.7327C160.941 30.396 160.709 29.7839 160.658 29.335L160.507 28.1618C160.507 28.1516 160.507 28.3352 160.507 28.3352V28.1618V24.7441V22.3773V14.9604H155.99L156 17.7966C155.99 19.9288 155.98 22.969 156.02 25.6317V25.6929C156.02 25.6929 155.899 28.9779 156.293 30.9775C156.303 31.0285 156.313 31.0898 156.323 31.1408C156.323 31.151 156.323 31.151 156.323 31.1612C156.323 31.1714 156.333 31.1816 156.333 31.1918C156.364 31.2938 156.394 31.406 156.424 31.508C156.424 31.5182 156.434 31.5386 156.434 31.5488C156.849 32.8139 157.859 34.1911 159.92 34.6808C160.365 34.8033 160.84 34.8747 161.335 34.8747C161.376 34.8747 161.416 34.8747 161.456 34.8747C161.497 34.8747 161.527 34.8747 161.557 34.8747C163.841 34.8849 165.508 34.0687 166.59 33.3342C166.61 33.324 166.62 33.3138 166.63 33.3036C166.812 33.171 166.984 33.0485 167.135 32.9261C167.6 32.5486 167.832 32.2528 167.832 32.2528V34.1197H172.349V14.9604H167.843Z" fill="#212121"/>
</g>
<g filter="url(#filter12_d)">
<path d="M18.8991 17.858C17.5956 16.8684 16.7063 16.5623 16.7063 16.5623C16.7063 16.5623 18.3837 15.5829 18.8182 12.3489C18.8384 12.0429 18.8586 11.4511 18.8586 11.1349C18.8586 5.16673 14.7056 4.15674 8.58216 4.15674L4.03503 4.17714V34.1505L8.60237 34.1403C16.3325 34.1403 21.4252 33.518 21.4252 24.4688C21.4252 21.6429 20.6068 19.2658 18.8991 17.858ZM8.60237 7.31934C11.4317 7.31934 12.5028 7.48257 13.1596 7.86005C13.2303 7.90086 13.3011 7.95186 13.3718 7.99267C13.5638 8.1355 13.7356 8.29873 13.9174 8.48237C14.5237 9.14549 14.8673 10.1045 14.8673 11.4817C14.8673 12.4305 14.6955 13.1549 14.3823 13.716C13.5234 14.93 12.3613 15.3789 10.6839 15.3789H8.59226V7.31934H8.60237ZM15.1906 29.6922C14.7865 30.0187 13.4425 30.8145 11.8359 30.8145H8.60237V19.5923H12.2603C13.1596 19.5923 13.9781 19.8984 14.6046 20.235C15.9081 21.092 16.8175 22.5917 16.8175 25.2238C16.8074 27.4172 16.1607 28.8047 15.1906 29.6922Z" fill="#212121"/>
</g>
</g>
</g>
<defs>
<filter id="filter0_d" x="56.9133" y="11.1748" width="25.199" height="26.6896" filterUnits="userSpaceOnUse" color-interpolation-filters="sRGB">
<feFlood flood-opacity="0" result="BackgroundImageFix"/>
<feColorMatrix in="SourceAlpha" type="matrix" values="0 0 0 0 0 0 0 0 0 0 0 0 0 0 0 0 0 0 127 0" result="hardAlpha"/>
<feOffset dx="2"/>
<feGaussianBlur stdDeviation="1.5"/>
<feComposite in2="hardAlpha" operator="out"/>
<feColorMatrix type="matrix" values="0 0 0 0 0 0 0 0 0 0 0 0 0 0 0 0 0 0 0.3 0"/>
<feBlend mode="normal" in2="BackgroundImageFix" result="effect1_dropShadow"/>
<feBlend mode="normal" in="SourceGraphic" in2="effect1_dropShadow" result="shape"/>
</filter>
<filter id="filter1_d" x="79.2446" y="11.1748" width="17.9236" height="25.9959" filterUnits="userSpaceOnUse" color-interpolation-filters="sRGB">
<feFlood flood-opacity="0" result="BackgroundImageFix"/>
<feColorMatrix in="SourceAlpha" type="matrix" values="0 0 0 0 0 0 0 0 0 0 0 0 0 0 0 0 0 0 127 0" result="hardAlpha"/>
<feOffset dx="2"/>
<feGaussianBlur stdDeviation="1.5"/>
<feComposite in2="hardAlpha" operator="out"/>
<feColorMatrix type="matrix" values="0 0 0 0 0 0 0 0 0 0 0 0 0 0 0 0 0 0 0.3 0"/>
<feBlend mode="normal" in2="BackgroundImageFix" result="effect1_dropShadow"/>
<feBlend mode="normal" in="SourceGraphic" in2="effect1_dropShadow" result="shape"/>
</filter>
<filter id="filter2_d" x="205.766" y="11.1953" width="25.199" height="26.6896" filterUnits="userSpaceOnUse" color-interpolation-filters="sRGB">
<feFlood flood-opacity="0" result="BackgroundImageFix"/>
<feColorMatrix in="SourceAlpha" type="matrix" values="0 0 0 0 0 0 0 0 0 0 0 0 0 0 0 0 0 0 127 0" result="hardAlpha"/>
<feOffset dx="2"/>
<feGaussianBlur stdDeviation="1.5"/>
<feComposite in2="hardAlpha" operator="out"/>
<feColorMatrix type="matrix" values="0 0 0 0 0 0 0 0 0 0 0 0 0 0 0 0 0 0 0.3 0"/>
<feBlend mode="normal" in2="BackgroundImageFix" result="effect1_dropShadow"/>
<feBlend mode="normal" in="SourceGraphic" in2="effect1_dropShadow" result="shape"/>
</filter>
<filter id="filter3_d" x="198.187" y="11.9604" width="10.436" height="25.1797" filterUnits="userSpaceOnUse" color-interpolation-filters="sRGB">
<feFlood flood-opacity="0" result="BackgroundImageFix"/>
<feColorMatrix in="SourceAlpha" type="matrix" values="0 0 0 0 0 0 0 0 0 0 0 0 0 0 0 0 0 0 127 0" result="hardAlpha"/>
<feOffset dx="2"/>
<feGaussianBlur stdDeviation="1.5"/>
<feComposite in2="hardAlpha" operator="out"/>
<feColorMatrix type="matrix" values="0 0 0 0 0 0 0 0 0 0 0 0 0 0 0 0 0 0 0.3 0"/>
<feBlend mode="normal" in2="BackgroundImageFix" result="effect1_dropShadow"/>
<feBlend mode="normal" in="SourceGraphic" in2="effect1_dropShadow" result="shape"/>
</filter>
<filter id="filter4_d" x="197.379" y="3.63574" width="11.9214" height="11.7743" filterUnits="userSpaceOnUse" color-interpolation-filters="sRGB">
<feFlood flood-opacity="0" result="BackgroundImageFix"/>
<feColorMatrix in="SourceAlpha" type="matrix" values="0 0 0 0 0 0 0 0 0 0 0 0 0 0 0 0 0 0 127 0" result="hardAlpha"/>
<feOffset dx="2"/>
<feGaussianBlur stdDeviation="1.5"/>
<feComposite in2="hardAlpha" operator="out"/>
<feColorMatrix type="matrix" values="0 0 0 0 0 0 0 0 0 0 0 0 0 0 0 0 0 0 0.3 0"/>
<feBlend mode="normal" in2="BackgroundImageFix" result="effect1_dropShadow"/>
<feBlend mode="normal" in="SourceGraphic" in2="effect1_dropShadow" result="shape"/>
</filter>
<filter id="filter5_d" x="23.1233" y="11.1953" width="25.2495" height="26.6794" filterUnits="userSpaceOnUse" color-interpolation-filters="sRGB">
<feFlood flood-opacity="0" result="BackgroundImageFix"/>
<feColorMatrix in="SourceAlpha" type="matrix" values="0 0 0 0 0 0 0 0 0 0 0 0 0 0 0 0 0 0 127 0" result="hardAlpha"/>
<feOffset dx="2"/>
<feGaussianBlur stdDeviation="1.5"/>
<feComposite in2="hardAlpha" operator="out"/>
<feColorMatrix type="matrix" values="0 0 0 0 0 0 0 0 0 0 0 0 0 0 0 0 0 0 0.3 0"/>
<feBlend mode="normal" in2="BackgroundImageFix" result="effect1_dropShadow"/>
<feBlend mode="normal" in="SourceGraphic" in2="effect1_dropShadow" result="shape"/>
</filter>
<filter id="filter6_d" x="45.3638" y="1.10547" width="17.3577" height="36.055" filterUnits="userSpaceOnUse" color-interpolation-filters="sRGB">
<feFlood flood-opacity="0" result="BackgroundImageFix"/>
<feColorMatrix in="SourceAlpha" type="matrix" values="0 0 0 0 0 0 0 0 0 0 0 0 0 0 0 0 0 0 127 0" result="hardAlpha"/>
<feOffset dx="2"/>
<feGaussianBlur stdDeviation="1.5"/>
<feComposite in2="hardAlpha" operator="out"/>
<feColorMatrix type="matrix" values="0 0 0 0 0 0 0 0 0 0 0 0 0 0 0 0 0 0 0.3 0"/>
<feBlend mode="normal" in2="BackgroundImageFix" result="effect1_dropShadow"/>
<feBlend mode="normal" in="SourceGraphic" in2="effect1_dropShadow" result="shape"/>
</filter>
<filter id="filter7_d" x="94.311" y="11.1646" width="31.4336" height="26.0163" filterUnits="userSpaceOnUse" color-interpolation-filters="sRGB">
<feFlood flood-opacity="0" result="BackgroundImageFix"/>
<feColorMatrix in="SourceAlpha" type="matrix" values="0 0 0 0 0 0 0 0 0 0 0 0 0 0 0 0 0 0 127 0" result="hardAlpha"/>
<feOffset dx="2"/>
<feGaussianBlur stdDeviation="1.5"/>
<feComposite in2="hardAlpha" operator="out"/>
<feColorMatrix type="matrix" values="0 0 0 0 0 0 0 0 0 0 0 0 0 0 0 0 0 0 0.3 0"/>
<feBlend mode="normal" in2="BackgroundImageFix" result="effect1_dropShadow"/>
<feBlend mode="normal" in="SourceGraphic" in2="effect1_dropShadow" result="shape"/>
</filter>
<filter id="filter8_d" x="140.54" y="3.22754" width="17.3072" height="34.6675" filterUnits="userSpaceOnUse" color-interpolation-filters="sRGB">
<feFlood flood-opacity="0" result="BackgroundImageFix"/>
<feColorMatrix in="SourceAlpha" type="matrix" values="0 0 0 0 0 0 0 0 0 0 0 0 0 0 0 0 0 0 127 0" result="hardAlpha"/>
<feOffset dx="2"/>
<feGaussianBlur stdDeviation="1.5"/>
<feComposite in2="hardAlpha" operator="out"/>
<feColorMatrix type="matrix" values="0 0 0 0 0 0 0 0 0 0 0 0 0 0 0 0 0 0 0.3 0"/>
<feBlend mode="normal" in2="BackgroundImageFix" result="effect1_dropShadow"/>
<feBlend mode="normal" in="SourceGraphic" in2="effect1_dropShadow" result="shape"/>
</filter>
<filter id="filter9_d" x="122.917" y="11.1689" width="20.2376" height="26.7058" filterUnits="userSpaceOnUse" color-interpolation-filters="sRGB">
<feFlood flood-opacity="0" result="BackgroundImageFix"/>
<feColorMatrix in="SourceAlpha" type="matrix" values="0 0 0 0 0 0 0 0 0 0 0 0 0 0 0 0 0 0 127 0" result="hardAlpha"/>
<feOffset dx="2"/>
<feGaussianBlur stdDeviation="1.5"/>
<feComposite in2="hardAlpha" operator="out"/>
<feColorMatrix type="matrix" values="0 0 0 0 0 0 0 0 0 0 0 0 0 0 0 0 0 0 0.3 0"/>
<feBlend mode="normal" in2="BackgroundImageFix" result="effect1_dropShadow"/>
<feBlend mode="normal" in="SourceGraphic" in2="effect1_dropShadow" result="shape"/>
</filter>
<filter id="filter10_d" x="174.502" y="3.22754" width="25.3707" height="34.6267" filterUnits="userSpaceOnUse" color-interpolation-filters="sRGB">
<feFlood flood-opacity="0" result="BackgroundImageFix"/>
<feColorMatrix in="SourceAlpha" type="matrix" values="0 0 0 0 0 0 0 0 0 0 0 0 0 0 0 0 0 0 127 0" result="hardAlpha"/>
<feOffset dx="2"/>
<feGaussianBlur stdDeviation="1.5"/>
<feComposite in2="hardAlpha" operator="out"/>
<feColorMatrix type="matrix" values="0 0 0 0 0 0 0 0 0 0 0 0 0 0 0 0 0 0 0.3 0"/>
<feBlend mode="normal" in2="BackgroundImageFix" result="effect1_dropShadow"/>
<feBlend mode="normal" in="SourceGraphic" in2="effect1_dropShadow" result="shape"/>
</filter>
<filter id="filter11_d" x="154.99" y="11.9604" width="22.3595" height="25.9143" filterUnits="userSpaceOnUse" color-interpolation-filters="sRGB">
<feFlood flood-opacity="0" result="BackgroundImageFix"/>
<feColorMatrix in="SourceAlpha" type="matrix" values="0 0 0 0 0 0 0 0 0 0 0 0 0 0 0 0 0 0 127 0" result="hardAlpha"/>
<feOffset dx="2"/>
<feGaussianBlur stdDeviation="1.5"/>
<feComposite in2="hardAlpha" operator="out"/>
<feColorMatrix type="matrix" values="0 0 0 0 0 0 0 0 0 0 0 0 0 0 0 0 0 0 0.3 0"/>
<feBlend mode="normal" in2="BackgroundImageFix" result="effect1_dropShadow"/>
<feBlend mode="normal" in="SourceGraphic" in2="effect1_dropShadow" result="shape"/>
</filter>
<filter id="filter12_d" x="3.03503" y="1.15674" width="23.3902" height="35.9938" filterUnits="userSpaceOnUse" color-interpolation-filters="sRGB">
<feFlood flood-opacity="0" result="BackgroundImageFix"/>
<feColorMatrix in="SourceAlpha" type="matrix" values="0 0 0 0 0 0 0 0 0 0 0 0 0 0 0 0 0 0 127 0" result="hardAlpha"/>
<feOffset dx="2"/>
<feGaussianBlur stdDeviation="1.5"/>
<feComposite in2="hardAlpha" operator="out"/>
<feColorMatrix type="matrix" values="0 0 0 0 0 0 0 0 0 0 0 0 0 0 0 0 0 0 0.3 0"/>
<feBlend mode="normal" in2="BackgroundImageFix" result="effect1_dropShadow"/>
<feBlend mode="normal" in="SourceGraphic" in2="effect1_dropShadow" result="shape"/>
</filter>
<clipPath id="clip0">
<rect width="230" height="39" fill="white"/>
</clipPath>
</defs>
</svg>
