<svg width="72" height="72" viewBox="0 0 72 72" fill="none" xmlns="http://www.w3.org/2000/svg">
<g opacity="0.8">
<path d="M36 0C21.334 0 9.40283 11.9312 9.40283 26.5971C9.40283 31.4253 11.5682 36.618 11.6589 36.837C12.3582 38.497 13.7382 41.0754 14.7332 42.5867L32.9695 70.218C33.7157 71.3507 34.8203 72 36 72C37.1796 72 38.2842 71.3507 39.0305 70.2196L57.2683 42.5867C58.2649 41.0754 59.6432 38.497 60.3426 36.837C60.4333 36.6196 62.5971 31.4269 62.5971 26.5971C62.5971 11.9312 50.6659 0 36 0ZM57.4576 35.6229C56.8333 37.1108 55.5489 39.5093 54.6555 40.8641L36.4177 68.497C36.0579 69.043 35.9436 69.043 35.5838 68.497L17.346 40.8641C16.4526 39.5093 15.1682 37.1093 14.5439 35.6214C14.5173 35.5572 12.5319 30.7776 12.5319 26.5971C12.5319 13.6568 23.0597 3.12907 36 3.12907C48.9403 3.12907 59.468 13.6568 59.468 26.5971C59.468 30.7838 57.4779 35.576 57.4576 35.6229Z" fill="#212121"/>
<path d="M36 12.5181C28.2352 12.5181 21.9192 18.8357 21.9192 26.5989C21.9192 34.3621 28.2352 40.6797 36 40.6797C43.7648 40.6797 50.0808 34.3621 50.0808 26.5989C50.0808 18.8357 43.7648 12.5181 36 12.5181ZM36 37.5507C29.9625 37.5507 25.0483 32.638 25.0483 26.5989C25.0483 20.5598 29.9625 15.6471 36 15.6471C42.0376 15.6471 46.9518 20.5598 46.9518 26.5989C46.9518 32.638 42.0376 37.5507 36 37.5507Z" fill="#212121"/>
</g>
</svg>
