<svg width="78" height="78" viewBox="0 0 78 78" fill="none" xmlns="http://www.w3.org/2000/svg">
<g opacity="0.8" clip-path="url(#clip0)">
<g filter="url(#filter0_d)">
<path d="M38.9998 0C23.1117 0 10.1863 12.9254 10.1863 28.8136C10.1863 34.0441 12.532 39.6695 12.6303 39.9068C13.388 41.7051 14.8829 44.4983 15.9609 46.1356L35.7168 76.0695C36.5253 77.2966 37.7219 78 38.9998 78C40.2778 78 41.4744 77.2966 42.2829 76.0712L62.0405 46.1356C63.1202 44.4983 64.6134 41.7051 65.371 39.9068C65.4693 39.6712 67.8134 34.0458 67.8134 28.8136C67.8134 12.9254 54.888 0 38.9998 0ZM62.2456 38.5915C61.5693 40.2034 60.1778 42.8017 59.21 44.2695L39.4524 74.2051C39.0625 74.7966 38.9388 74.7966 38.549 74.2051L18.7914 44.2695C17.8236 42.8017 16.432 40.2017 15.7558 38.5898C15.727 38.5203 13.5761 33.3424 13.5761 28.8136C13.5761 14.7949 24.9812 3.38983 38.9998 3.38983C53.0185 3.38983 64.4236 14.7949 64.4236 28.8136C64.4236 33.3492 62.2676 38.5407 62.2456 38.5915Z" fill="#212121"/>
</g>
<g filter="url(#filter1_d)">
<path d="M38.9998 13.561C30.588 13.561 23.7456 20.4051 23.7456 28.8153C23.7456 37.2254 30.588 44.0695 38.9998 44.0695C47.4117 44.0695 54.2541 37.2254 54.2541 28.8153C54.2541 20.4051 47.4117 13.561 38.9998 13.561ZM38.9998 40.6797C32.4592 40.6797 27.1354 35.3576 27.1354 28.8153C27.1354 22.2729 32.4592 16.9509 38.9998 16.9509C45.5405 16.9509 50.8642 22.2729 50.8642 28.8153C50.8642 35.3576 45.5405 40.6797 38.9998 40.6797Z" fill="#212121"/>
</g>
</g>
<defs>
<filter id="filter0_d" x="10.1863" y="-4" width="65.6271" height="86" filterUnits="userSpaceOnUse" color-interpolation-filters="sRGB">
<feFlood flood-opacity="0" result="BackgroundImageFix"/>
<feColorMatrix in="SourceAlpha" type="matrix" values="0 0 0 0 0 0 0 0 0 0 0 0 0 0 0 0 0 0 127 0" result="hardAlpha"/>
<feOffset dx="4"/>
<feGaussianBlur stdDeviation="2"/>
<feComposite in2="hardAlpha" operator="out"/>
<feColorMatrix type="matrix" values="0 0 0 0 0 0 0 0 0 0 0 0 0 0 0 0 0 0 0.3 0"/>
<feBlend mode="normal" in2="BackgroundImageFix" result="effect1_dropShadow"/>
<feBlend mode="normal" in="SourceGraphic" in2="effect1_dropShadow" result="shape"/>
</filter>
<filter id="filter1_d" x="23.7456" y="9.56104" width="38.5085" height="38.5085" filterUnits="userSpaceOnUse" color-interpolation-filters="sRGB">
<feFlood flood-opacity="0" result="BackgroundImageFix"/>
<feColorMatrix in="SourceAlpha" type="matrix" values="0 0 0 0 0 0 0 0 0 0 0 0 0 0 0 0 0 0 127 0" result="hardAlpha"/>
<feOffset dx="4"/>
<feGaussianBlur stdDeviation="2"/>
<feComposite in2="hardAlpha" operator="out"/>
<feColorMatrix type="matrix" values="0 0 0 0 0 0 0 0 0 0 0 0 0 0 0 0 0 0 0.3 0"/>
<feBlend mode="normal" in2="BackgroundImageFix" result="effect1_dropShadow"/>
<feBlend mode="normal" in="SourceGraphic" in2="effect1_dropShadow" result="shape"/>
</filter>
<clipPath id="clip0">
<rect width="78" height="78" fill="white"/>
</clipPath>
</defs>
</svg>
